<svg fill="none" height="1009" viewBox="0 0 748 1009" width="748" id="mears-map" xmlns="http://www.w3.org/2000/svg">
    <g id="wales">
        <title>Wales</title>
        <path d="M315.216 739.653L314.082 741.286C309.375 743.473 306.675 747.566 304.089 751.714C303.96 751.847 303.801 751.947 303.626 752.008C303.451 752.069 303.264 752.088 303.08 752.065C295.39 756.135 288.857 761.881 281.53 766.416C279.149 768.57 276.12 768.512 273.205 768.852C262.669 771.845 251.565 773.001 241.754 778.42C241.346 778.653 240.87 778.741 240.404 778.668C233.395 781.264 230.095 786.456 230.65 794.073C231.201 801.083 234.426 807.612 239.66 812.311C244.894 817.01 251.735 819.518 258.767 819.315C267.103 819.089 274.226 815.813 281.031 811.28C287.349 807.097 293.927 807.482 300.732 809.941C301.379 810.225 302.014 810.497 302.683 810.724C304.301 811.052 305.785 811.853 306.946 813.025C308.107 814.198 308.893 815.689 309.205 817.309C309.474 817.945 309.784 818.562 310.135 819.157C313.549 829.88 313.549 829.88 325.378 828.644C326.127 828.576 326.887 828.576 327.647 828.576C333.715 827.806 338.07 830.424 341.336 835.378C346.457 843.188 353.631 849.438 362.069 853.446C367.915 855.741 374.427 855.663 380.217 853.23C382.894 852.029 384.617 849.671 386.398 847.495C390.095 842.961 394.349 839.436 400.382 838.665C406.757 838.007 412.858 836.398 415.127 829.597C417.645 821.991 418.598 814.147 413.845 806.768C410.591 807.732 412.156 805.318 412.008 804.184C411.304 801.203 409.218 799.298 406.678 797.87C391.184 789.165 387.055 775.416 389.563 758.923C391.23 747.929 393.305 737.002 394.439 725.949C395.505 715.578 396.39 705.207 389.063 696.309C389.222 695.107 386.024 697.204 387.51 694.813C387.929 691.344 385.57 689.066 383.721 686.572C381.952 682.582 381.09 678.638 384.856 675.237C390.334 670.091 397.91 666.657 398.988 657.917C399.815 653.497 397.819 649.359 397.706 645.041C396.915 641.982 395.631 639.073 393.906 636.426C392.432 634.545 390.787 632.958 388.167 632.958C386.624 633.218 385.366 634.261 383.925 634.635C377.564 636.429 370.768 635.849 364.802 633.003C365.247 632.511 365.602 631.948 365.858 631.337C366.03 630.652 366.072 629.94 365.982 629.24C365.756 628.549 365.367 627.924 364.849 627.415L361.798 627.234C354.538 624.411 347.28 622.813 339.987 627.109C339.8 627.259 339.586 627.368 339.355 627.431C339.126 627.493 338.884 627.507 338.648 627.472C330.88 633.037 323.427 634.692 316.747 625.794C316.463 625.42 315.84 625.352 315.329 625.227C311.258 626.927 313.356 623.13 312.392 621.997C311.531 620.692 310.394 619.593 309.061 618.776C307.729 617.96 306.233 617.445 304.679 617.27C303.129 616.697 301.471 616.475 299.825 616.622C298.179 616.769 296.587 617.281 295.163 618.12C293.507 619.129 291.262 620.058 291.761 622.529C292.226 624.819 294.188 625.579 296.456 625.454C298.396 625.352 299.745 623.232 301.923 623.856C303.454 624.604 302.853 625.511 302.139 626.429C301.685 626.893 301.231 627.37 300.812 627.88C297.817 631.609 292.668 634.069 293.632 640.121C293.836 641.131 294.301 642.069 294.982 642.842C300.948 648.249 300.505 653.757 295.685 659.584C294.792 660.823 294.032 662.153 293.417 663.551C291.659 668.595 284.513 670.148 284.854 676.597C285.003 676.924 285.222 677.214 285.494 677.449C285.766 677.683 286.085 677.857 286.43 677.958C289.05 683.693 298.033 677.991 301.934 680.054C305.212 680.916 308.433 681.891 311.62 683.024C314.388 683.84 317.133 684.69 319.333 686.685C325.979 691.763 326.921 699.528 328.86 706.839C329.063 706.976 329.295 707.063 329.538 707.096C329.781 707.128 330.028 707.103 330.259 707.024C330.491 706.945 330.701 706.814 330.874 706.64C331.046 706.466 331.254 706.396 331.254 706.023C334 706 334.356 709.039 332.653 709.542C331.561 709.118 330.506 708.602 329.5 708C329.357 707.941 328.845 707.877 328.691 707.889C328.536 707.9 328.387 707.947 328.253 708.026C328.12 708.106 328.007 708.215 327.924 708.345C327.84 708.475 327.788 708.623 327.771 708.777C327.59 710.738 329.5 712.5 327.238 714.649C322.962 722.855 319.027 731.221 315.216 739.653Z"/>
    </g>
    <g id="scotland">
        <title>Scotland</title>
        <path d="M444.732 204.327L443.677 205.926C441.216 215.481 436.634 224.22 432.993 233.311C431.724 236.738 429.451 239.705 426.472 241.823C424.101 246.017 421.061 249.384 416.105 250.472C415.348 250.574 414.58 250.539 413.836 250.369C410.922 249.395 410.876 251.379 410.729 253.294C406.192 257.08 400.657 256.332 395.349 256.457C390.416 255.947 386.537 258.452 382.624 260.877L381.648 261.319C380.958 261.537 380.248 261.678 379.527 261.738C377.259 261.738 375.218 263.439 372.87 262.975C371.497 262.702 370.385 262.725 369.785 264.21C370.771 264.266 371.668 263.076 372.778 264.21C373.89 265.344 374.514 266.715 375.807 267.61C377.1 268.506 378.222 269.05 378.7 270.489C378.132 273.481 375.013 271.509 373.72 273.039C373.561 273.652 372.427 273.199 372.507 274.116C372.847 273.425 373.641 273.233 374.151 272.757C375.782 272.126 377.498 271.744 379.244 271.623C383.349 271.328 380.049 268.869 380.775 267.724C383.429 263.938 387.897 263.439 391.686 261.693C399.273 260.185 407.394 255.731 413.031 265.4C413.553 267.508 413.337 269.775 414.018 271.804C414.789 274.071 414.812 271.181 415.413 271.441C415.548 271.351 415.703 271.295 415.865 271.277C416.026 271.259 416.189 271.281 416.341 271.34C416.492 271.399 416.628 271.493 416.734 271.616C416.841 271.738 416.917 271.884 416.955 272.042C417.058 275.442 418.021 278.752 416.955 282.096C415.901 286.132 412.419 285.792 409.436 286.109C399.568 287.175 391.073 290.824 384.483 298.51C378.971 304.936 371.021 307.578 363.082 311.499C376.691 316.124 389.167 315.262 401.213 309.232C403.991 307.838 406.657 306.365 409.81 306.115L418.532 304.404C425.859 305.899 434.002 305.73 438.04 313.936C438.596 315.886 438.472 318.471 440.308 319.479C448.248 323.797 451.65 331.812 456.607 338.59C457.09 339.576 457.167 340.711 456.823 341.752C456.364 342.757 455.664 343.631 454.782 344.296C453.901 344.961 452.867 345.396 451.776 345.561C448.838 346.298 444.324 344.303 444.187 349.936C439.514 357.87 438.982 366.179 440.502 375.27C442.77 389.144 438.551 396.398 425.859 402.587C418.906 405.988 412.317 410.158 404.853 412.437C404.142 412.522 403.422 412.487 402.721 412.335C401.893 412.153 401.088 411.564 400.215 412.2C400.895 412.698 401.848 412.913 401.961 414.012C393.387 421.947 385.493 431.015 372.473 431.309C371.418 430.687 370.612 429.587 369.194 429.621C368.321 429.621 367.482 429.621 367.686 429.621C368.333 429.247 369.728 429.326 370.896 430.856C370.193 433.328 368.037 433.656 366.053 433.883C358.545 434.721 351.898 437.998 345.207 441.138C342.692 444.016 340.023 446.755 337.21 449.344C329.747 455.556 322.307 452.076 314.946 448.833C314.675 448.837 314.41 448.743 314.202 448.569C313.994 448.393 313.856 448.15 313.811 447.882C313.472 445.932 311.781 446.25 310.466 445.909C303.842 442.871 302.005 446.317 301.948 452.178V453.708C302.538 460.509 298.296 459.375 294.168 458.468C291.661 456.791 288.089 456.87 286.432 453.787H286.376C285.072 452.268 282.973 452.495 281.419 451.396C279.865 450.296 278.312 449.162 276.837 448.029C276.348 447.585 275.886 447.112 275.453 446.612C275.079 446.082 274.557 445.673 273.952 445.438C273.347 445.202 272.686 445.149 272.051 445.286C271.45 445.501 270.849 445.728 270.27 446C267.367 447.133 266.561 450.794 263.374 451.543C258.293 454.093 255.163 451.747 252.486 447.519C246.169 437.566 249.945 428.726 255.185 419.963C257.235 417.422 258.898 414.592 260.119 411.564C260.376 410.929 260.762 410.354 261.253 409.876C264.157 409.818 263.522 408.3 262.524 406.656C262.357 404.18 263.172 401.737 264.792 399.855C266.493 398.053 267.367 395.74 268.637 393.678C272.403 386.185 274.818 377.956 280.83 371.711C286.75 367.403 287.068 362.19 281.907 354.017C281.453 354.017 281 353.948 280.546 353.937C278.278 352.713 275.692 351.772 276.554 348.349C276.168 346.785 280.138 349.313 278.357 346.433C277.314 344.722 276.327 343.033 276.996 340.879C277.699 332.775 279.741 324.681 276.996 316.577C276.724 313.539 280.762 314.141 281.215 311.703C274.41 305.696 271.506 306.149 267.752 313.641C265.484 318.176 264.849 325.373 256.773 319.638C255.174 318.505 253.461 320.567 252.237 321.904C249.974 324.018 247.584 325.99 245.08 327.811C239.885 332.027 234.123 334.373 227.919 331.063C221.715 327.753 220.49 321.712 221.262 315.138C220.615 314.244 220.254 313.175 220.228 312.072C220.201 310.968 220.511 309.884 221.114 308.96C219.98 303.179 223.439 298.521 225.254 293.635C229.689 281.745 228.827 268.63 234.328 257.057C235.666 254.269 236.687 251.39 239.035 249.179C245.987 241.336 250.15 232.052 254.017 220.74C246.817 227.069 240.211 234.042 234.282 241.574C233.813 242.09 233.317 242.582 232.796 243.048C230.77 244.871 229.047 247.007 227.693 249.372C221.602 255.675 217.712 264.402 207.992 266.669C207.809 266.621 207.615 266.627 207.436 266.687C207.256 266.748 207.098 266.859 206.982 267.01C206.084 268.096 204.909 268.92 203.582 269.397C202.255 269.873 200.825 269.984 199.44 269.719C195.731 268.725 191.834 268.667 188.098 269.548C185.421 269.424 183.289 268.675 183.482 265.377C183.826 264.988 184.027 264.491 184.049 263.972C184.4 260.843 187.565 260.14 189.141 258.066C190.695 256.457 192.43 254.949 192.465 252.398C192.714 249.145 189.686 247.184 189.232 244.215C189.232 241.744 189.232 239.228 191.784 237.754C192.453 237.38 193.19 237.141 193.882 236.825C196.99 235.408 201.731 235.6 201.924 230.976C202.105 226.521 197.387 226.101 194.54 224.253C192.374 222.747 190.094 221.057 190.865 218.088C191.693 214.868 194.744 214.291 197.546 213.678C198.805 213.407 200.109 213.429 201.368 213.191C212.88 211.049 213.844 210.074 214.275 198.319C214.536 190.385 219.129 184.332 222.146 177.588C223.674 175.174 224.872 172.566 225.708 169.835C225.889 169.177 226.116 168.52 226.332 167.885C226.982 165.61 227.19 163.233 226.944 160.88C226.887 160.177 226.887 159.486 226.887 158.783C226.887 156.266 226.785 153.796 225.356 151.585C224.381 149.749 224.063 147.561 222.872 145.918C218.517 139.819 216.26 134.051 222.022 127.193C223.961 124.925 223.303 120.947 222.022 117.501C216.657 102.765 221.489 92.5642 235.836 86.4774C239.897 84.7658 243.685 82.5554 248.312 82.7028C249.843 82.6007 251.397 82.5894 252.94 82.3967C255.991 82.0113 257.987 82.8388 257.839 86.4774C257.658 90.9093 254.868 90.1725 252.849 89.9911C256.977 89.4585 262.206 90.8413 266.391 87.1347C265.405 87.2141 266.936 86.1146 266.505 86.364C264.112 87.7128 261.843 90.4446 259.042 88.0869C256.841 86.2507 259.666 84.505 260.301 82.7368C261.321 79.9257 259.416 77.8061 258.599 75.4371C257.658 72.694 256.399 69.7016 259.597 67.854C262.796 66.0064 263.681 69.9396 265.722 71.1184C266.153 69.5656 266.04 67.9559 266.856 66.5844C263.227 67.65 258.395 65.2469 256.184 70.6877C255.787 71.6512 253.393 70.189 252.429 68.9762C250.456 66.4825 250.876 63.5353 253.246 62.1751C260.131 58.1739 261.889 50.9762 265.144 44.6739C268.444 37.9637 267.412 31.004 266.369 24.0443C266.176 17.4247 268.637 11.5758 271.937 6.07839C276.883 -2.07145 284.232 -1.9581 294.009 6.01038C294.352 6.46028 294.82 6.79844 295.355 6.98206C295.89 7.16568 296.468 7.18649 297.014 7.04185C312.791 10.0456 328.375 7.49525 343.982 5.34161C349.471 1.91383 355.911 0.325509 362.367 0.807623C368 2.0922 373.838 2.20026 379.516 1.12501C386.491 1.22703 390.403 4.80887 391.436 11.6326C392.48 16.756 392.253 21.936 391.957 27.1048C391.983 27.6935 391.872 28.2799 391.637 28.82C391.401 29.3599 391.045 29.8394 390.597 30.2219C389.213 30.7093 389.077 31.8655 389.054 33.0783C387.273 36.8528 385.572 40.684 381.659 42.8263L381.535 42.9737C378.2 47.9497 374.48 52.5405 368.831 55.0795C368.183 56.1404 367.327 57.0603 366.317 57.7847C365.305 58.5091 364.159 59.023 362.945 59.2961C356.934 61.6991 350.82 63.9548 348.371 70.8238C348.213 71.4841 347.997 72.129 347.724 72.7507C346.361 75.0451 344.477 76.9866 342.223 78.4181C340.511 81.6714 336.916 83.5415 335.748 87.1915C333.592 91.4081 335.441 94.5138 338.276 97.5856C341.112 100.657 344.276 103.412 342.302 108.195V108.025C342.204 108.284 342.053 108.517 341.857 108.713C341.662 108.908 341.427 109.061 341.168 109.159C339.524 110.417 339.672 114.588 335.917 112.412C335.237 111.368 335.793 110.144 335.203 108.649C335.713 110.326 335.067 111.891 336.337 112.956C338.39 115.098 337.153 117.546 337.006 119.904C334.874 125.073 330.451 128.144 326.402 131.545C325.018 132.792 324.28 134.096 327.002 134.175C331.54 134.322 335.089 131.692 338.526 129.097C339.653 128.218 340.918 127.533 342.269 127.068C347.747 125.741 351.842 121.91 356.515 119.133C356.515 118.668 356.515 118.204 356.582 117.751C358.692 114.871 361.686 113.432 365.021 112.502C370.511 110.712 376.204 110.768 381.887 110.61C387.489 111.221 393.511 108.966 398.616 113.013C398.718 113.897 399.194 115.053 397.482 114.701C397.958 116.243 398.808 114.906 399.228 114.769C403.878 113.216 408.926 114.611 413.519 112.774C425.836 111.641 438.21 112.423 450.516 110.836C461.416 109.431 471.805 119.802 471.839 131.432C471.215 134.538 470.342 137.644 471.476 140.829C471.941 144.081 471.34 146.972 468.504 149.035C464.399 150.169 460.894 151.869 461.495 157.117C460.362 160.857 458.932 164.439 455.949 167.159H456.04C455.405 169.812 453.704 172.17 453.772 175.095C451.084 178.857 449.881 182.95 451.016 187.563C450.948 188.232 450.784 188.89 450.527 189.512C449.393 191.326 449.779 193.321 449.904 195.293C449.575 198.977 448.576 202.491 444.732 204.327V204.327Z"/>
    </g>
    <g id="northern-ireland">
        <title>Northern Ireland</title>
        <path d="M171.156 531.577L172.743 532.031C181.442 533.878 182.725 540.725 183.485 547.9V553.465C181.408 568.064 178.38 571.125 162.093 575.149C160.95 575.326 159.781 575.217 158.691 574.832C145.614 563.768 131.311 567.441 123.531 582.902C122.34 585.271 124.552 588.898 120.82 590.361C120.434 590.972 120.015 591.574 119.618 592.174C118.815 593.438 117.775 594.535 116.555 595.404C114.536 596.538 112.45 597.389 110.08 596.538C104.408 590.621 104.521 585.838 110.499 582.04C116.26 578.368 117.791 574.661 114.457 571.284C110.181 566.954 106.167 568.744 102.673 572.734C102.338 573.387 101.959 574.016 101.539 574.616C99.6089 577.053 97.9861 579.718 96.707 582.551C94.4386 586.847 92.5446 585.18 90.7525 582.142C89.278 578.481 88.1892 574.672 86.9189 570.932C86.0244 568.06 84.8068 565.3 83.2895 562.703C82.9606 562.159 82.6544 561.57 82.3368 561.049C81.5629 559.706 80.3665 558.658 78.9341 558.067C77.8006 557.627 76.5547 557.567 75.3842 557.897C74.8171 558.146 74.25 558.362 73.7056 558.622C72.339 559.389 71.1181 560.391 70.0988 561.581C67.8304 563.712 66.4581 566.432 64.7228 568.926C64.0229 569.752 63.077 570.331 62.0234 570.581C56.0008 570.002 52.7797 573.902 49.7968 578.209C48.0729 580.703 47.3696 583.877 44.8176 585.838C43.7681 586.395 42.6034 586.702 41.4151 586.733C36.8783 586.325 33.3963 583.492 29.472 581.678H29.5288C23 578.5 19.1282 575.319 15.0791 570.705C10.6558 565.65 7.43466 559.722 3.81658 554.088C-2.76175 543.819 -1.0151 539.07 10.4516 535.148C12.72 534.4 14.9316 534.354 17.132 533.799L21.5894 531.951C23.0978 529.095 25.7065 526.624 24.6517 522.883L21.4873 519.653C18.3229 513.815 18.8446 512.024 24.2547 512.705C32.0921 513.679 36.3452 510.234 39.1807 503.523C40.5644 500.247 41.9935 496.824 45.3734 494.897L46.5076 493.106C50.3185 483.732 59.6983 477.237 69.804 477.884C74.6016 478.167 77.0061 475.809 78.9341 472.216C82.0759 466.356 86.6468 463.477 93.4972 464.44C97.8902 465.146 102.394 464.506 106.415 462.604C114.185 458.682 122.509 459.691 130.619 459.203C137.164 458.784 142.04 463.08 144.513 470.255C144.57 474.279 144.615 478.314 144.672 482.338C147.746 491.542 155.707 498.037 158.566 507.354C166.812 517.386 165.087 524.198 153.088 528.993C151.845 529.349 150.664 529.892 149.583 530.602C146.827 532.869 146.759 535.635 149.016 537.993C151.478 540.577 153.179 538.118 154.551 536.293C156.751 533.357 159.088 530.625 162.808 529.673C165.972 528.732 168.932 528.528 171.156 531.577Z"/>
    </g>
    <g id="england">
        <title>England</title>
        <path d="M481.777 349.457C490.113 351.395 494.763 357.142 497.939 364.668C508.237 389.05 514.577 414.701 522.335 439.899C524.161 445.815 525.817 451.777 527.553 457.718C528.5 460.96 529.925 465.692 530.513 465.232C535.968 479.559 546.913 485.84 561.306 490.51C585.374 498.32 596.75 518.28 600.107 542.174C601.865 554.643 605.778 564.844 615.113 573.346C622.099 579.716 621.237 583.444 612.753 587.854C611.834 588.33 610.871 588.715 609.952 589.191C601.581 593.453 601.23 596.083 608.568 601.75C616.507 607.894 624.628 613.845 632.67 619.887C636.209 621.314 637.07 625.01 639.237 627.605V627.481C640.859 630.496 640.643 633.591 639.645 636.719C639.49 636.909 639.382 637.135 639.331 637.374C639.28 637.615 639.287 637.865 639.35 638.101C638.284 641.049 638.408 644.732 634.576 646.037C632.114 646.875 633.588 649.901 631.739 651.08C629.948 654.821 628.133 658.539 625.241 661.599C621.646 668.944 622.043 676.233 625.524 683.487C632.794 690.775 634.053 690.9 642.731 685.165C643.864 682.965 645.248 681.118 647.823 680.54C652.007 678.908 654.912 674.997 659.459 673.988C662.136 672.969 664.995 672.401 667.523 670.95C668.908 670.1 670.155 668.831 672.061 669.375C675.009 667.539 678.638 669.897 681.565 667.844L684.571 667.663C686.838 668.128 689.368 667.346 691.183 669.397C691.359 671.784 689.656 672.644 687.938 673.512L687.78 673.592C685.07 674.419 687.78 678 687.78 678C693.5 684 703.658 674.941 715.76 673.625C716.485 673.495 717.232 673.586 717.904 673.886C738.978 681.435 750.478 704.49 746.168 728.384C743.9 740.683 738.978 751.939 732.909 762.763C732.32 765.677 731.141 768.114 727.908 768.885L726.569 770.358C724.914 773.731 722.287 776.535 719.027 778.406C704.283 791.736 689.346 804.963 674.725 818.475C668.827 823.939 662.374 829.957 666.094 839.162C670.041 848.91 678.457 853.375 688.529 854.759C695.334 855.699 701.833 853.625 708.241 851.358C719.458 847.515 725.911 851.733 726.581 863.578C727.034 871.455 726.263 879.152 718.96 884.309C708.423 894.17 695.141 899.656 682.824 906.582C674.034 911.501 664.982 915.968 656.125 920.785C651.515 923.432 646.367 925.003 641.063 925.382C635.761 925.761 630.441 924.937 625.501 922.973C617.8 920.022 609.761 918.039 601.57 917.067C602.156 916.486 602.776 916.194 603.417 916.066C601.35 916.023 599.279 916.05 597.203 916.036C597.317 916.682 593.801 914.687 596.398 917.169C585.737 918.087 576.618 924.4 566.104 925.795C559.98 925.225 553.818 925.176 547.684 925.648C542.729 924.31 537.749 923.029 532.804 921.635C521.383 918.416 511.401 920.864 502.986 929.252C496.669 935.532 489.75 940.655 480.563 941.721L480.2 941.712C475.648 941.601 471.084 941.49 466.521 941.8C445.436 938.196 424.353 934.455 402.802 935.498C399.196 935.667 395.555 935.498 391.994 936.008C376.036 938.162 367.574 945.869 363.945 961.569C362.732 966.828 361.983 972.2 361.019 977.516L360.441 979.942C356.392 988.172 352.206 989.928 344.562 985.916C339.606 983.32 334.229 981.087 331.02 976.009C329.092 975.227 326.981 975.816 324.985 975.102C309.107 969.367 294.215 972.71 279.867 980.441C273.981 983.603 268.525 987.536 262.129 989.815L260.813 991.016C258.204 996.491 253.327 999.439 248.564 1002.52C245.161 1008.19 240.091 1009.81 234.023 1007.94C227.241 1005.93 221.695 998.305 221.57 991.9C221.445 984.805 225.732 981.302 231.721 979.069C233.139 978.548 234.772 978.604 236.042 977.596C239.783 973.035 243.995 968.882 248.609 965.207C254.178 953.169 262.945 943.217 270.306 932.335C275.353 924.888 279.935 917.146 285.051 909.733C292.1 899.216 300.788 889.894 310.786 882.121C313.825 879.854 317.296 879.141 320.721 878.086L323.296 877.462C324.927 875.864 327.009 874.804 329.261 874.425C349.791 873.608 370.342 874.255 390.882 874.096C394.784 874.096 398.56 873.835 402.008 871.829C402.689 871.444 403.404 871.07 404.085 870.696C408.838 867.463 412.876 863.288 415.948 858.432C418.67 854.701 420.716 850.523 421.993 846.087C424.784 841.837 424.148 835.988 428.311 832.372C430.375 832.711 433.267 836.611 433.267 836.611C435 838 429.865 830.536 430.999 827.543C432.132 823.961 432.734 820.391 430.579 816.934C430.137 816.364 429.728 815.77 429.354 815.154C427.534 811.444 426.422 807.427 426.076 803.309C426.064 802.187 429.257 799.004 430 798.163C431.5 797.5 424.159 798.74 422.31 798.163C421.743 797.758 421.286 797.216 420.984 796.587C420.984 795.181 422.64 793.187 419.396 792.994C416.932 792.862 414.479 792.556 412.058 792.076C411.347 791.868 410.674 791.55 410.062 791.135C408.051 788.831 405.891 786.662 403.596 784.64C399.831 779.778 400.319 774.303 401.329 768.772C402.462 765.155 403.596 763 408.677 764.079C413 764.996 409.266 757.414 408.349 753.537C407.998 752.843 407.584 752.183 407.112 751.565C404.175 746.192 405.786 740.321 405.23 734.687C405.411 727.705 405.456 720.745 406.137 713.763C406.931 705.613 404.016 697.996 400.954 690.503C396.247 678.987 397.075 676.562 407.17 670.021C413.589 665.861 415.109 662.257 412.761 654.923C410.686 648.519 407.906 642.375 405.456 636.095C401 625.792 401.544 614.911 402.36 604.165C403.177 593.419 406.352 582.968 408.462 572.427C408.942 570.144 410.133 568.073 411.865 566.51L412.319 563.937C412.942 560.48 410.878 556.728 413.453 553.453C414.344 552.176 415.506 551.112 416.855 550.335C420.542 549.825 420.802 551.82 420.439 554.54C421.573 556 419.736 549.61 421.573 547.581C427.562 542.82 431.18 536.903 430.942 528.969C430.84 525.795 429.888 523.097 426.677 522.417C423.467 521.737 421.187 523.324 420.95 526.951C420.877 527.908 420.433 528.8 419.713 529.434C418.993 530.07 418.052 530.399 417.094 530.352C415.518 530.2 413.995 529.701 412.637 528.89C410.912 527.869 408.825 527.325 407.849 525.319C406.318 519.028 409.868 516.92 415.267 516.25C419.566 515.763 424.103 517.01 428.106 514.494C431.022 512.136 430.67 509.382 429.025 506.491C423.354 499.158 416.651 503.216 410.186 504.791C409.824 504.792 409.466 504.72 409.134 504.58C408.801 504.44 408.499 504.234 408.246 503.975C407.022 502.195 407.033 500.087 406.727 498.058C406.171 494.432 403.733 493.717 400.546 493.808C397.358 493.898 395.793 495.395 395.476 498.444C395.351 499.724 395.373 501.016 395.181 502.298C394.262 508.328 392.743 508.929 387.831 505.381C385.858 503.941 384.746 501.221 381.094 502.49C379.325 503.114 378.905 501.879 378.724 495.496C378.724 494.465 377.011 495.406 378.032 495.202C378.338 495.145 378.531 495.327 378.485 495.735C378.213 498.387 379.563 501.595 375.945 503.091C372.01 501.958 375.049 498.07 373.268 496.064C371.782 484.558 371.51 473.155 376.183 462.183C379.836 448.139 390.928 439.978 401.135 431.409C413.316 421.207 427.392 413.771 441.399 406.415C458.015 397.687 461.52 391.238 458.809 372.694C458.095 367.785 457.47 362.753 459.263 358.071C461.417 352.461 464.933 348.04 472.012 349.434C478 350 474 350 481.777 349.457Z"/>
    </g>
</svg>